# xmcd CD database file
#
# Track frame offsets:
#	150
#	11495
#	21362
#	35762
#	47875
#	60802
#	77187
#	94390
#	111935
#	127972
#	141737
#	154740
#	173567
#	187675
#	199662
#	215165
#	224890
#	239480
#	251417
#	265777
#	278555
#	290335
#
# Disc length: 4106 seconds
#
# Revision: 2
# Processed by: cddbd v1.5.1PL2 Copyright (c) Steve Scherf et al.
# Submitted via: CDex 1.51
#
DISCID=49100816
DTITLE=Bossa Nova Compiled by bar bossa - Bossa Nova Compiled by bar bossa
DYEAR=2004
DGENRE=Jazz
TTITLE0=Melancolia/Ceu Da Boca
TTITLE1=Marina/Marilia Medalha
TTITLE2=Nicanor/Chico Buarque
TTITLE3=There Will Never Be Another You/Nara Leoa and Roberto Menescal
TTITLE4=Despedida/Carlos Lyra
TTITLE5=Pot-Pourri De Garoto - Duas Contas-Gente Humilde/Quarteto Em Cy
TTITLE6=Sabado Em Copacabana/Sylvia Telles
TTITLE7=Morrer De Amor/Nana Caymmi
TTITLE8=Bebel/Joao Gilberto
TTITLE9=Samboa/Tamba Trio
TTITLE10=De Palavra Em Palavra/MPB-4
TTITLE11=Cancao Do Amanhecer/Edu Lobo and Antonio Carlos Jobim
TTITLE12=Moca Flor/Tamba 4
TTITLE13=Carta Ao Tom 74/Vinicius Moraes and Toquinho
TTITLE14=Lamento/Baden Powell
TTITLE15=Silencio Do Amor/Luiz Bonfa
TTITLE16=Jpdel/Joao Donato
TTITLE17=Maria/Gilberto Gil
TTITLE18=E NAda Mais/Os Gatos
TTITLE19=Zabele/Gal Costa and Caetano Veloso
TTITLE20=Samba Do Aviao/Os Cariocas
TTITLE21=Aguas De Marco/Antonio Carlos Jobim
EXTD=YEAR: 2004
EXTT0=
EXTT1=
EXTT2=
EXTT3=
EXTT4=
EXTT5=
EXTT6=
EXTT7=
EXTT8=
EXTT9=
EXTT10=
EXTT11=
EXTT12=
EXTT13=
EXTT14=
EXTT15=
EXTT16=
EXTT17=
EXTT18=
EXTT19=
EXTT20=
EXTT21=
PLAYORDER=
